<?xml version="1.0" standalone="no"?>
<!DOCTYPE svg PUBLIC "-//W3C//DTD SVG 20010904//EN"
 "http://www.w3.org/TR/2001/REC-SVG-20010904/DTD/svg10.dtd">
<svg version="1.0" xmlns="http://www.w3.org/2000/svg"
 width="216.000000pt" height="216.000000pt" viewBox="0 0 216.000000 216.000000"
 preserveAspectRatio="xMidYMid meet">
<metadata>
Created by potrace 1.10, written by Peter Selinger 2001-2011
</metadata>
<g transform="translate(0.000000,216.000000) scale(0.100000,-0.100000)"
fill="#000000" stroke="none">
<path d="M860 2134 c-248 -53 -466 -187 -622 -383 -55 -69 -105 -151 -92 -151
10 0 29 23 69 84 37 56 168 196 225 241 114 91 266 157 465 204 92 22 53 26
-45 5z"/>
<path d="M1240 2134 c205 -53 363 -118 429 -178 10 -9 23 -16 29 -16 12 0 94
-71 161 -140 42 -43 141 -181 141 -196 0 -4 6 -15 13 -23 35 -41 117 -282 117
-342 0 -10 4 -20 8 -23 16 -9 -8 115 -39 208 -122 365 -439 645 -809 712 -96
17 -121 16 -50 -2z"/>
<path d="M1023 1326 c-13 -6 -23 -19 -23 -28 0 -10 -6 -18 -14 -18 -17 0 -76
-65 -76 -84 0 -39 15 -76 43 -108 18 -19 38 -45 45 -57 12 -20 10 -21 -27 -19
-22 1 -47 -5 -56 -12 -8 -7 -15 -8 -15 -3 0 16 23 33 46 33 33 0 38 17 8 24
-32 8 -78 -13 -82 -39 -5 -31 -32 -85 -42 -85 -15 0 -17 -34 -3 -68 12 -28 11
-39 -2 -78 -42 -125 -59 -211 -59 -309 0 -114 11 -185 29 -185 7 0 18 -21 24
-47 7 -27 16 -61 21 -78 15 -50 22 -103 16 -113 -3 -6 -15 -8 -27 -5 -16 4
-17 8 -7 14 10 7 10 9 1 9 -8 0 -14 15 -14 38 -1 23 -3 28 -6 15 -2 -13 -8
-23 -13 -23 -5 0 -16 -3 -26 -7 -13 -5 -16 -3 -11 10 5 13 2 14 -16 7 -12 -4
-21 -14 -19 -22 1 -7 -6 -3 -17 10 -12 13 -25 20 -35 16 -9 -3 -16 -2 -16 4 0
6 -15 15 -33 21 -30 10 -33 15 -29 41 3 19 0 30 -7 30 -7 0 -11 -6 -10 -12 1
-7 1 -21 0 -30 -1 -17 -2 -17 -19 0 -10 9 -17 23 -14 30 3 8 -1 10 -12 6 -12
-5 -15 -2 -9 12 5 14 3 16 -12 10 -18 -7 -18 -6 0 14 18 20 18 20 -14 4 -30
-15 -33 -15 -46 2 -7 10 -11 23 -7 28 3 5 -2 7 -11 3 -10 -3 -17 -2 -17 3 0 6
-9 10 -20 10 -26 0 -26 17 0 25 21 7 28 25 10 25 -5 0 -10 -4 -10 -10 0 -5
-11 -10 -25 -10 -14 0 -25 6 -25 13 0 7 -9 18 -20 25 -11 7 -20 19 -20 27 0 8
-7 15 -15 15 -13 0 -17 6 -14 26 0 4 -5 10 -12 15 -11 6 -10 9 4 15 9 3 17 11
17 16 0 6 -6 8 -14 5 -8 -3 -17 -1 -20 6 -2 7 -5 4 -5 -5 -1 -10 -5 -18 -10
-18 -5 0 -7 9 -4 20 3 12 13 19 26 17 17 -2 22 5 29 42 9 51 23 71 16 23 -5
-37 -3 -40 12 -11 8 14 8 24 1 32 -13 17 -8 46 10 58 10 6 10 9 1 9 -10 0 -9
7 3 30 19 37 19 46 -1 26 -8 -9 -17 -26 -18 -38 -2 -13 -6 -30 -9 -38 -3 -8
-12 -34 -19 -57 -8 -23 -26 -51 -40 -62 l-26 -21 -7 23 c-4 12 -6 28 -6 35 3
19 -13 14 -27 -9 -12 -19 -9 -27 24 -78 69 -103 247 -271 289 -271 9 0 13 -4
10 -10 -3 -6 1 -7 9 -4 10 4 16 1 16 -8 0 -30 301 -151 330 -133 5 3 10 0 12
-6 2 -5 39 -13 82 -16 59 -5 77 -3 72 5 -4 7 -15 12 -24 12 -10 0 -28 7 -40
16 -12 8 -22 12 -22 8 0 -5 -5 -3 -11 3 -6 6 -18 9 -26 6 -11 -5 -14 -1 -10
13 16 52 18 74 9 74 -6 0 -13 -10 -15 -23 -3 -15 -5 -12 -6 11 0 18 -5 31 -10
28 -10 -6 -21 41 -21 89 0 18 -6 38 -14 44 -17 14 -36 87 -36 138 0 51 23 166
58 289 22 77 26 108 19 134 -7 29 -4 39 20 74 55 77 104 84 156 21 41 -50 67
-151 68 -270 1 -108 9 -151 27 -147 13 2 17 -28 13 -96 -2 -36 0 -41 15 -35
14 5 16 2 12 -18 -3 -13 -8 -31 -12 -40 -5 -12 3 -19 34 -29 22 -7 40 -17 40
-22 0 -5 -6 -6 -12 -2 -9 5 -9 2 1 -9 20 -25 32 -21 28 9 -4 30 -32 55 -53 47
-19 -7 -18 11 1 27 14 11 13 14 -3 26 -14 9 -21 30 -25 74 -3 33 -10 67 -17
75 -6 7 -11 37 -10 67 1 59 -5 104 -25 193 -7 33 -16 81 -19 106 -4 35 -14 57
-42 88 -21 22 -43 41 -51 41 -7 0 -13 5 -13 10 0 6 9 10 20 10 24 0 70 38 71
59 0 10 4 8 9 -6 5 -13 14 -23 20 -23 13 0 13 17 0 25 -11 7 -14 55 -4 55 4 0
13 -8 20 -17 13 -17 13 -17 14 1 0 10 5 16 13 13 6 -2 22 -1 34 4 l23 8 -27
45 c-29 47 -80 76 -136 76 -15 0 -27 5 -27 10 0 6 7 10 15 10 8 0 15 5 15 10
0 12 -8 11 -37 -4z m78 -72 c6 -7 16 -11 24 -8 7 3 16 1 20 -5 4 -7 -1 -8 -12
-4 -16 6 -17 5 -3 -11 12 -16 12 -19 -5 -29 -11 -6 -24 -12 -29 -12 -6 0 -14
-15 -18 -32 -10 -40 -53 -71 -76 -56 -9 5 -24 24 -34 42 -16 27 -16 32 -3 37
8 4 15 12 15 20 0 19 -16 18 -24 -2 -4 -9 -9 -14 -13 -10 -9 8 37 56 54 56 7
0 12 3 12 8 -3 17 3 19 41 19 22 0 45 -6 51 -13z"/>
<path d="M16 1248 c-9 -33 -8 -38 8 -38 20 0 29 16 21 40 -8 26 -21 25 -29 -2z"/>
<path d="M392 1190 c-7 -12 -8 -20 -2 -20 5 0 13 0 17 -1 4 0 10 9 15 20 10
28 -13 28 -30 1z"/>
<path d="M1201 1148 c0 -10 -6 -18 -12 -18 -5 0 -17 -16 -25 -36 -11 -27 -20
-35 -34 -31 -24 6 -33 -18 -14 -38 26 -26 41 -17 55 33 7 26 19 52 27 58 8 6
12 19 9 30 -4 16 -5 16 -6 2z"/>
<path d="M2129 943 c-2 -32 -4 -38 -23 -81 -10 -23 -23 -42 -28 -42 -4 0 -8
-5 -8 -11 0 -6 8 -8 19 -4 18 5 18 3 10 -36 -5 -22 -16 -57 -24 -76 -17 -41
-19 -55 -5 -33 16 23 68 199 75 253 4 30 3 47 -4 47 -6 0 -12 -8 -12 -17z"/>
<path d="M1032 913 c25 -49 40 -94 45 -135 3 -27 9 -44 13 -38 17 27 -27 180
-52 180 -5 0 -8 -3 -6 -7z"/>
<path d="M1210 850 c0 -5 7 -13 17 -18 9 -6 14 -16 10 -25 -4 -11 -2 -14 9
-10 18 7 18 8 -2 38 -16 25 -34 33 -34 15z"/>
<path d="M1204 782 c7 -11 -5 -26 -34 -40 l-25 -12 25 2 c14 1 30 0 35 -4 6
-3 11 8 12 28 1 19 -3 34 -8 34 -6 0 -8 -4 -5 -8z"/>
<path d="M418 726 c-29 -21 -22 -40 7 -19 24 18 32 33 18 33 -5 0 -16 -7 -25
-14z"/>
<path d="M463 716 c0 -8 8 -11 19 -8 12 3 21 -3 27 -19 8 -19 10 -20 10 -6 1
22 -22 47 -42 47 -7 0 -14 -6 -14 -14z"/>
<path d="M667 705 c-3 -17 -9 -38 -12 -47 -4 -10 -3 -18 2 -18 14 0 30 54 23
75 -6 16 -8 14 -13 -10z"/>
<path d="M568 689 c-10 -5 -18 -18 -18 -29 0 -26 -10 -50 -22 -50 -6 0 -8 7
-4 15 3 8 1 15 -5 15 -6 0 -8 4 -5 8 3 5 -1 9 -9 9 -8 0 -15 -6 -15 -14 0 -7
5 -13 10 -13 6 0 10 -8 10 -19 0 -14 6 -17 25 -13 18 3 25 11 25 29 0 13 7 35
16 48 18 28 17 29 -8 14z"/>
<path d="M407 673 c-4 -3 -7 -19 -7 -34 0 -15 -4 -31 -10 -34 -6 -4 -10 6 -10
21 0 20 -3 25 -10 18 -13 -13 8 -67 21 -58 5 3 9 1 9 -5 0 -5 -5 -13 -10 -16
-8 -5 -7 -11 1 -21 8 -10 8 -14 0 -14 -6 0 -11 -10 -11 -22 0 -35 21 -6 30 41
5 27 3 42 -4 44 -8 3 -8 8 0 18 7 8 12 26 12 42 -1 29 -1 30 -11 20z"/>
<path d="M696 625 c-4 -20 -11 -33 -16 -30 -6 3 -7 -1 -4 -10 3 -8 3 -27 -1
-43 l-7 -27 -19 24 c-11 13 -22 21 -25 18 -4 -3 1 -13 9 -21 9 -9 13 -25 10
-38 -4 -19 -3 -20 6 -8 7 10 11 11 11 3 0 -7 -9 -22 -21 -34 -23 -23 -21 -33
5 -23 9 3 13 10 10 15 -3 5 13 8 36 6 l41 -3 -23 21 c-13 13 -26 20 -30 18
-19 -10 5 41 29 66 12 11 12 16 2 22 -10 6 -10 16 -2 43 6 20 8 36 3 36 -4 0
-11 -16 -14 -35z"/>
<path d="M1860 636 c-5 -15 -8 -31 -5 -36 3 -4 -2 -11 -10 -14 -12 -4 -14 0
-9 21 5 18 4 24 -5 19 -6 -4 -11 0 -12 11 -1 12 -3 10 -9 -7 -4 -16 -2 -30 5
-39 10 -11 7 -21 -16 -56 -16 -24 -29 -46 -29 -49 0 -12 28 -6 40 9 11 14 14
13 25 -1 6 -10 17 -14 23 -10 14 8 62 -3 62 -15 0 -5 -10 -5 -22 0 -13 5 -32
5 -43 1 -17 -6 -17 -7 7 -13 20 -5 26 -13 24 -32 -1 -23 -8 -30 -30 -26 -5 1
-6 -5 -3 -13 4 -9 1 -18 -5 -22 -7 -5 -8 -2 -3 5 5 9 2 12 -11 9 -11 -2 -18
-11 -18 -21 1 -9 -1 -15 -5 -12 -7 4 -41 -30 -41 -41 0 -12 -31 -35 -40 -29
-5 3 -10 2 -10 -4 0 -5 6 -12 13 -14 10 -4 10 -6 0 -6 -7 -1 -16 -1 -19 0 -4
0 -11 -5 -16 -13 -8 -10 -11 -10 -15 0 -2 6 -9 9 -15 6 -5 -3 -8 2 -6 12 2 14
-4 19 -22 21 -14 1 -18 0 -7 -3 10 -3 17 -15 17 -30 0 -15 6 -24 16 -24 8 0
12 -5 9 -10 -3 -6 -17 -7 -29 -4 -17 4 -25 1 -28 -13 -3 -10 -27 -29 -54 -41
-27 -13 -56 -28 -64 -33 -8 -5 -22 -12 -30 -15 -8 -3 -23 -10 -32 -15 -14 -7
-18 -5 -18 10 0 11 5 23 10 26 6 4 8 14 5 24 -3 10 7 30 26 51 17 19 28 27 25
18 -4 -14 11 -28 30 -28 3 0 -6 20 -23 49 -2 2 -12 -4 -23 -14 -11 -10 -20
-14 -20 -9 0 5 -7 -4 -15 -20 -8 -15 -15 -38 -15 -51 0 -12 -7 -28 -15 -35 -9
-7 -14 -19 -11 -27 7 -16 -6 -17 -23 0 -11 10 -13 9 -8 -6 4 -9 2 -17 -3 -17
-6 0 -10 5 -10 11 0 5 -5 7 -10 4 -6 -4 -7 -11 -4 -17 5 -7 -2 -9 -20 -4 -17
4 -34 2 -42 -5 -11 -9 -14 -7 -14 9 0 12 -5 24 -11 28 -8 4 -9 -3 -4 -25 4
-18 3 -31 -3 -31 -8 0 -22 67 -22 106 0 9 11 14 31 14 27 0 30 -3 24 -22 -5
-18 -4 -20 4 -8 15 21 14 39 -3 56 -19 18 -46 18 -46 -1 0 -8 -7 -15 -15 -15
-8 0 -15 5 -15 11 0 5 4 7 10 4 6 -3 7 1 4 9 -4 11 2 19 19 25 27 11 51 44 45
63 -2 6 -14 -4 -27 -23 -13 -19 -20 -26 -17 -16 3 9 1 17 -4 17 -6 0 -10 7
-10 15 0 8 -7 15 -15 15 -18 0 -17 3 -5 -39 11 -41 0 -55 -54 -65 -35 -7 -37
-6 -31 13 7 24 -10 61 -29 61 -18 0 -6 -80 14 -91 8 -4 31 -10 51 -14 26 -4
39 -13 47 -31 21 -45 15 -62 -30 -83 l-43 -21 70 5 c94 6 95 7 88 19 -4 8 -2
7 6 0 29 -26 272 68 401 156 83 56 190 158 251 240 51 68 59 86 34 76 -13 -4
-13 -2 -5 14 16 29 13 45 -5 30 -12 -10 -16 -8 -24 11 -5 13 -10 19 -10 13 -1
-7 -10 -14 -21 -17 -11 -3 -25 -18 -30 -33 -6 -16 -14 -24 -18 -18 -4 6 -15
13 -24 17 -25 9 -22 22 12 50 17 15 26 29 20 32 -7 4 -6 13 1 26 6 12 8 23 5
26 -3 3 -10 -6 -16 -21z m78 -95 c8 -4 12 -19 10 -32 -2 -18 -8 -23 -23 -21
-27 5 -28 7 -21 37 7 27 13 30 34 16z"/>
<path d="M338 562 c-16 -26 -16 -28 3 -28 14 0 19 7 19 28 0 15 -1 28 -3 28
-1 0 -10 -13 -19 -28z"/>
<path d="M562 577 c-7 -8 -20 -13 -30 -11 -28 7 -46 -10 -33 -32 10 -18 10
-17 11 4 0 20 3 21 20 12 16 -9 24 -7 36 5 9 8 14 20 12 26 -2 7 -8 6 -16 -4z"/>
<path d="M1205 572 c-14 -10 -18 -59 -6 -67 6 -3 9 0 5 8 -3 8 2 20 11 27 26
22 17 52 -10 32z"/>
<path d="M1440 560 c0 -19 2 -20 15 -10 12 10 15 10 15 -3 0 -9 -14 -17 -36
-22 -41 -7 -44 -5 -47 24 -1 11 -5 21 -10 21 -5 0 -7 -7 -3 -15 3 -8 -1 -21
-8 -28 -10 -9 -12 -24 -7 -48 5 -27 8 -30 14 -16 4 11 5 23 2 27 -3 5 -1 11 4
14 5 4 12 2 16 -4 10 -15 35 -12 35 5 0 18 17 20 23 3 2 -7 -5 -18 -17 -25
-19 -11 -19 -12 -3 -13 11 0 27 10 38 23 15 18 18 19 19 5 0 -10 9 -22 19 -27
15 -9 20 -7 25 12 3 12 6 32 6 45 0 13 4 21 8 18 5 -3 9 1 9 9 0 25 -32 -10
-34 -36 -1 -12 -7 -27 -14 -33 -9 -8 -10 -6 -6 11 3 13 -1 24 -8 27 -8 3 -15
15 -17 28 -4 31 -38 38 -38 8z"/>
<path d="M452 561 c-16 -10 -14 -22 6 -37 11 -8 12 -13 4 -18 -7 -4 -12 -2
-12 3 0 6 -7 11 -15 11 -8 0 -15 -7 -15 -15 0 -8 -5 -15 -12 -15 -6 0 -8 -3
-5 -6 4 -4 13 -2 20 4 14 12 27 7 27 -10 0 -5 -4 -6 -10 -3 -5 3 -10 0 -10 -8
0 -8 -7 -20 -15 -27 -8 -7 -15 -17 -15 -22 0 -19 64 44 65 64 1 11 7 23 13 27
7 4 8 12 2 20 -4 8 -6 20 -3 28 6 15 -5 17 -25 4z"/>
<path d="M1245 508 c-4 -18 -8 -35 -9 -38 -1 -3 -4 -9 -8 -15 -3 -6 4 -10 18
-10 13 0 24 3 24 8 0 4 -4 7 -10 7 -5 0 -10 8 -10 18 0 14 2 15 10 2 7 -11 9
-5 8 23 -2 46 -13 48 -23 5z"/>
<path d="M520 519 c0 -5 4 -8 9 -4 5 3 13 0 17 -6 5 -9 0 -10 -18 -6 -19 5
-28 2 -32 -9 -9 -25 -7 -27 11 -13 15 13 16 12 11 -9 -4 -15 -2 -25 8 -29 8
-3 14 -12 14 -20 0 -12 3 -13 15 -3 12 10 11 15 -6 33 -18 20 -19 23 -3 34 9
7 14 19 11 28 -7 17 -37 21 -37 4z"/>
<path d="M1280 519 c-13 -9 -12 -10 2 -5 11 3 23 -3 31 -15 14 -20 14 -20 20
1 3 11 1 18 -4 14 -5 -3 -9 0 -9 5 0 14 -21 14 -40 0z"/>
<path d="M1569 523 c-19 -5 -32 -40 -18 -45 6 -2 5 -17 -2 -35 -13 -40 -10
-56 11 -43 13 9 13 11 0 20 -13 8 -13 10 1 10 20 0 33 27 16 33 -9 3 -9 11 0
35 6 18 11 31 10 31 -1 -1 -9 -3 -18 -6z"/>
<path d="M1730 524 c0 -5 -10 -10 -22 -11 -12 -1 -26 -9 -30 -18 -5 -8 -13
-13 -19 -10 -12 8 -11 -6 1 -25 7 -11 11 -9 19 13 14 35 19 34 15 -3 -3 -22 1
-30 12 -30 11 0 15 6 11 20 -3 11 -1 20 3 20 11 0 24 39 16 47 -3 4 -6 2 -6
-3z"/>
<path d="M1606 458 c-3 -13 -6 -34 -5 -48 l0 -25 10 23 c6 15 13 21 21 16 10
-6 10 -4 0 8 -9 11 -10 18 -2 23 6 3 8 11 5 16 -10 16 -22 10 -29 -13z"/>
<path d="M586 454 c-11 -28 -7 -44 9 -38 8 4 15 17 15 30 0 27 -15 32 -24 8z"/>
<path d="M1396 435 c-8 -21 4 -47 20 -41 7 3 14 0 16 -6 3 -7 10 -8 17 -4 17
11 -7 39 -26 32 -11 -4 -13 0 -8 14 7 23 -10 28 -19 5z"/>
<path d="M673 433 c-16 -6 -17 -33 -3 -33 6 0 13 7 16 15 4 10 13 13 26 9 14
-4 18 -2 14 5 -7 11 -31 13 -53 4z"/>
<path d="M1331 401 c-8 -5 -20 -7 -28 -4 -7 3 -13 1 -13 -5 0 -14 28 -23 35
-12 11 17 23 11 29 -15 9 -36 26 -31 25 8 -2 27 -2 28 -6 7 l-5 -25 -12 27
c-8 20 -15 25 -25 19z"/>
<path d="M665 380 c3 -5 1 -10 -4 -10 -6 0 -11 -4 -11 -8 0 -5 13 -9 30 -9
l29 0 -21 19 c-23 20 -32 23 -23 8z"/>
<path d="M447 374 c-11 -11 2 -24 18 -17 9 3 15 -1 15 -11 0 -9 4 -16 10 -16
6 0 6 9 1 23 -8 22 -31 33 -44 21z"/>
<path d="M1260 348 c0 -10 4 -18 9 -18 5 0 16 -3 25 -6 11 -4 16 -1 16 11 0
12 -5 15 -17 11 -9 -4 -20 -1 -25 6 -6 10 -8 8 -8 -4z"/>
<path d="M1130 331 c0 -11 -5 -21 -11 -21 -5 0 -7 -4 -4 -10 3 -5 -1 -10 -9
-10 -9 0 -16 -7 -16 -15 0 -19 13 -19 50 0 36 18 36 20 10 52 -19 25 -20 25
-20 4z"/>
<path d="M732 313 c-9 -13 -14 -15 -18 -5 -3 6 -11 12 -17 12 -7 0 0 -11 15
-25 16 -15 25 -31 22 -40 -10 -26 12 -16 24 10 16 35 15 42 -3 19 -15 -18 -16
-17 -10 14 7 37 5 39 -13 15z"/>
<path d="M1330 306 c-6 -8 -19 -12 -28 -9 -11 3 -13 2 -6 -4 7 -4 14 -17 17
-28 5 -19 5 -19 12 2 12 36 55 42 55 7 0 -19 16 -18 24 1 3 9 0 15 -8 15 -7 0
-19 7 -26 15 -16 19 -24 19 -40 1z"/>
<path d="M595 290 c4 -6 -1 -7 -11 -3 -14 5 -16 2 -12 -20 5 -24 2 -27 -21
-28 -23 0 -24 -1 -6 -9 16 -7 26 -2 48 23 31 36 34 47 11 47 -8 0 -12 -4 -9
-10z"/>
<path d="M1603 246 c-4 -7 -18 -18 -30 -25 -13 -6 -23 -18 -23 -27 0 -13 3
-13 23 1 13 8 29 26 35 40 12 26 9 34 -5 11z"/>
<path d="M650 235 c-7 -8 -18 -15 -25 -15 -13 0 -24 -37 -17 -58 2 -7 8 -12
14 -12 7 0 6 5 -1 14 -10 11 -6 17 20 30 40 20 45 20 29 1 -10 -13 -9 -15 10
-15 19 0 21 -2 10 -15 -9 -11 -10 -19 -3 -26 8 -8 13 -1 18 22 7 32 -3 48 -39
63 -7 3 -6 8 4 15 8 6 10 11 4 11 -6 0 -17 -7 -24 -15z"/>
<path d="M1280 235 c0 -13 24 -55 32 -55 5 0 7 -4 3 -9 -3 -5 -1 -12 5 -16 15
-9 12 10 -7 49 -15 30 -33 47 -33 31z"/>
<path d="M1376 225 c-8 -8 -21 -15 -29 -15 -9 0 -14 -7 -13 -15 1 -9 6 -14 12
-13 5 2 8 7 6 11 -1 5 1 6 5 4 5 -3 16 6 26 19 20 27 16 32 -7 9z"/>
<path d="M1352 159 c-32 -32 -40 -49 -22 -49 6 0 10 7 10 15 0 9 9 15 22 15
12 0 18 3 15 7 -4 3 -2 12 5 20 23 28 0 22 -30 -8z"/>
<path d="M1461 158 c-6 -17 -9 -34 -6 -36 8 -8 34 31 35 51 0 28 -17 19 -29
-15z"/>
<path d="M1055 49 c-4 -17 -3 -35 3 -41 6 -6 10 4 10 31 1 49 -4 52 -13 10z"/>
</g>
</svg>
